<?xml version="1.0" encoding="UTF-8"?>
<!--Generator: Apple Native CoreSVG 123-->
<!DOCTYPE svg
PUBLIC "-//W3C//DTD SVG 1.1//EN"
       "http://www.w3.org/Graphics/SVG/1.1/DTD/svg11.dtd">
<svg version="1.1" xmlns="http://www.w3.org/2000/svg" xmlns:xlink="http://www.w3.org/1999/xlink" width="3300" height="2200">
 <!--glyph: "uni10040B.medium", point size: 100.000000, font version: "Version 15.0d7e11", template writer version: "5"-->
 <g id="Notes">
  <rect height="2200" id="artboard" style="fill:white;opacity:1" width="3300" x="0" y="0"/>
  <line id="" style="fill:none;stroke:black;opacity:1;stroke-width:0.5;" x1="263" x2="3036" y1="292" y2="292"/>
  <text style="stroke:none;fill:black;font-family:-apple-system,&quot;SF Pro Display&quot;,&quot;SF Pro Text&quot;,Helvetica,sans-serif;font-weight:bold;" transform="matrix(1 0 0 1 263 322)">Weight/Scale Variations</text>
  <text style="stroke:none;fill:black;font-family:-apple-system,&quot;SF Pro Display&quot;,&quot;SF Pro Text&quot;,Helvetica,sans-serif;text-anchor:middle;" transform="matrix(1 0 0 1 559.711 322)">Ultralight</text>
  <text style="stroke:none;fill:black;font-family:-apple-system,&quot;SF Pro Display&quot;,&quot;SF Pro Text&quot;,Helvetica,sans-serif;text-anchor:middle;" transform="matrix(1 0 0 1 856.422 322)">Thin</text>
  <text style="stroke:none;fill:black;font-family:-apple-system,&quot;SF Pro Display&quot;,&quot;SF Pro Text&quot;,Helvetica,sans-serif;text-anchor:middle;" transform="matrix(1 0 0 1 1153.13 322)">Light</text>
  <text style="stroke:none;fill:black;font-family:-apple-system,&quot;SF Pro Display&quot;,&quot;SF Pro Text&quot;,Helvetica,sans-serif;text-anchor:middle;" transform="matrix(1 0 0 1 1449.84 322)">Regular</text>
  <text style="stroke:none;fill:black;font-family:-apple-system,&quot;SF Pro Display&quot;,&quot;SF Pro Text&quot;,Helvetica,sans-serif;text-anchor:middle;" transform="matrix(1 0 0 1 1746.56 322)">Medium</text>
  <text style="stroke:none;fill:black;font-family:-apple-system,&quot;SF Pro Display&quot;,&quot;SF Pro Text&quot;,Helvetica,sans-serif;text-anchor:middle;" transform="matrix(1 0 0 1 2043.27 322)">Semibold</text>
  <text style="stroke:none;fill:black;font-family:-apple-system,&quot;SF Pro Display&quot;,&quot;SF Pro Text&quot;,Helvetica,sans-serif;text-anchor:middle;" transform="matrix(1 0 0 1 2339.98 322)">Bold</text>
  <text style="stroke:none;fill:black;font-family:-apple-system,&quot;SF Pro Display&quot;,&quot;SF Pro Text&quot;,Helvetica,sans-serif;text-anchor:middle;" transform="matrix(1 0 0 1 2636.69 322)">Heavy</text>
  <text style="stroke:none;fill:black;font-family:-apple-system,&quot;SF Pro Display&quot;,&quot;SF Pro Text&quot;,Helvetica,sans-serif;text-anchor:middle;" transform="matrix(1 0 0 1 2933.4 322)">Black</text>
  <line id="" style="fill:none;stroke:black;opacity:1;stroke-width:0.5;" x1="263" x2="3036" y1="1903" y2="1903"/>
  <g id="" transform="matrix(1 0 0 1 263 1933)">
   <path d="M 9.24805 0.830078 C 13.5547 0.830078 17.1387 -2.74414 17.1387 -7.05078 C 17.1387 -11.3574 13.5449 -14.9316 9.23828 -14.9316 C 4.94141 -14.9316 1.36719 -11.3574 1.36719 -7.05078 C 1.36719 -2.74414 4.95117 0.830078 9.24805 0.830078 Z M 9.24805 -0.654297 C 5.70312 -0.654297 2.87109 -3.49609 2.87109 -7.05078 C 2.87109 -10.6055 5.69336 -13.4473 9.23828 -13.4473 C 12.793 -13.4473 15.6348 -10.6055 15.6445 -7.05078 C 15.6543 -3.49609 12.8027 -0.654297 9.24805 -0.654297 Z M 9.22852 -3.42773 C 9.69727 -3.42773 9.9707 -3.74023 9.9707 -4.25781 L 9.9707 -6.31836 L 12.1973 -6.31836 C 12.6953 -6.31836 13.0371 -6.57227 13.0371 -7.04102 C 13.0371 -7.51953 12.7148 -7.7832 12.1973 -7.7832 L 9.9707 -7.7832 L 9.9707 -10.0098 C 9.9707 -10.5273 9.69727 -10.8496 9.22852 -10.8496 C 8.75977 -10.8496 8.50586 -10.5078 8.50586 -10.0098 L 8.50586 -7.7832 L 6.29883 -7.7832 C 5.78125 -7.7832 5.44922 -7.51953 5.44922 -7.04102 C 5.44922 -6.57227 5.80078 -6.31836 6.29883 -6.31836 L 8.50586 -6.31836 L 8.50586 -4.25781 C 8.50586 -3.75977 8.75977 -3.42773 9.22852 -3.42773 Z"/>
  </g>
  <g id="" transform="matrix(1 0 0 1 281.506 1933)">
   <path d="M 11.709 2.91016 C 17.1582 2.91016 21.6699 -1.60156 21.6699 -7.05078 C 21.6699 -12.4902 17.1484 -17.0117 11.6992 -17.0117 C 6.25977 -17.0117 1.74805 -12.4902 1.74805 -7.05078 C 1.74805 -1.60156 6.26953 2.91016 11.709 2.91016 Z M 11.709 1.25 C 7.09961 1.25 3.41797 -2.44141 3.41797 -7.05078 C 3.41797 -11.6504 7.08984 -15.3516 11.6992 -15.3516 C 16.3086 -15.3516 20 -11.6504 20.0098 -7.05078 C 20.0195 -2.44141 16.3184 1.25 11.709 1.25 Z M 11.6895 -2.41211 C 12.207 -2.41211 12.5195 -2.77344 12.5195 -3.33984 L 12.5195 -6.23047 L 15.5762 -6.23047 C 16.123 -6.23047 16.5039 -6.51367 16.5039 -7.03125 C 16.5039 -7.55859 16.1426 -7.86133 15.5762 -7.86133 L 12.5195 -7.86133 L 12.5195 -10.9277 C 12.5195 -11.5039 12.207 -11.8555 11.6895 -11.8555 C 11.1719 -11.8555 10.8789 -11.4844 10.8789 -10.9277 L 10.8789 -7.86133 L 7.83203 -7.86133 C 7.26562 -7.86133 6.89453 -7.55859 6.89453 -7.03125 C 6.89453 -6.51367 7.28516 -6.23047 7.83203 -6.23047 L 10.8789 -6.23047 L 10.8789 -3.33984 C 10.8789 -2.79297 11.1719 -2.41211 11.6895 -2.41211 Z"/>
  </g>
  <g id="" transform="matrix(1 0 0 1 304.924 1933)">
   <path d="M 14.9707 5.67383 C 21.9336 5.67383 27.6953 -0.078125 27.6953 -7.04102 C 27.6953 -14.0039 21.9238 -19.7559 14.9609 -19.7559 C 8.00781 -19.7559 2.25586 -14.0039 2.25586 -7.04102 C 2.25586 -0.078125 8.01758 5.67383 14.9707 5.67383 Z M 14.9707 3.85742 C 8.93555 3.85742 4.08203 -1.00586 4.08203 -7.04102 C 4.08203 -13.0762 8.92578 -17.9395 14.9609 -17.9395 C 21.0059 -17.9395 25.8594 -13.0762 25.8691 -7.04102 C 25.8789 -1.00586 21.0156 3.85742 14.9707 3.85742 Z M 14.9512 -1.06445 C 15.5176 -1.06445 15.8691 -1.45508 15.8691 -2.06055 L 15.8691 -6.13281 L 20.1074 -6.13281 C 20.6934 -6.13281 21.1133 -6.46484 21.1133 -7.02148 C 21.1133 -7.59766 20.7227 -7.93945 20.1074 -7.93945 L 15.8691 -7.93945 L 15.8691 -12.1875 C 15.8691 -12.8027 15.5176 -13.1934 14.9512 -13.1934 C 14.3848 -13.1934 14.0625 -12.7832 14.0625 -12.1875 L 14.0625 -7.93945 L 9.83398 -7.93945 C 9.21875 -7.93945 8.80859 -7.59766 8.80859 -7.02148 C 8.80859 -6.46484 9.23828 -6.13281 9.83398 -6.13281 L 14.0625 -6.13281 L 14.0625 -2.06055 C 14.0625 -1.47461 14.3848 -1.06445 14.9512 -1.06445 Z"/>
  </g>
  <text style="stroke:none;fill:black;font-family:-apple-system,&quot;SF Pro Display&quot;,&quot;SF Pro Text&quot;,Helvetica,sans-serif;font-weight:bold;" transform="matrix(1 0 0 1 263 1953)">Design Variations</text>
  <text style="stroke:none;fill:black;font-family:-apple-system,&quot;SF Pro Display&quot;,&quot;SF Pro Text&quot;,Helvetica,sans-serif;" transform="matrix(1 0 0 1 263 1971)">Symbols are supported in up to nine weights and three scales.</text>
  <text style="stroke:none;fill:black;font-family:-apple-system,&quot;SF Pro Display&quot;,&quot;SF Pro Text&quot;,Helvetica,sans-serif;" transform="matrix(1 0 0 1 263 1989)">For optimal layout with text and other symbols, vertically align</text>
  <text style="stroke:none;fill:black;font-family:-apple-system,&quot;SF Pro Display&quot;,&quot;SF Pro Text&quot;,Helvetica,sans-serif;" transform="matrix(1 0 0 1 263 2007)">symbols with the adjacent text.</text>
  <rect height="14" id="" style="fill:#00AEEF;stroke:none;opacity:0.4;" width="3" x="776" y="1919"/>
  <g id="" transform="matrix(1 0 0 1 779 1933)">
   <path d="M 10.5273 0 L 12.373 0 L 7.17773 -14.0918 L 5.43945 -14.0918 L 0.244141 0 L 2.08984 0 L 3.50586 -4.0332 L 9.11133 -4.0332 Z M 6.2793 -11.9531 L 6.33789 -11.9531 L 8.59375 -5.52734 L 4.02344 -5.52734 Z"/>
  </g>
  <rect height="14" id="" style="fill:#00AEEF;stroke:none;opacity:0.4;" width="3" x="791.617" y="1919"/>
  <text style="stroke:none;fill:black;font-family:-apple-system,&quot;SF Pro Display&quot;,&quot;SF Pro Text&quot;,Helvetica,sans-serif;font-weight:bold;" transform="matrix(1 0 0 1 776 1953)">Margins</text>
  <text style="stroke:none;fill:black;font-family:-apple-system,&quot;SF Pro Display&quot;,&quot;SF Pro Text&quot;,Helvetica,sans-serif;" transform="matrix(1 0 0 1 776 1971)">Leading and trailing margins on the left and right side of each symbol</text>
  <text style="stroke:none;fill:black;font-family:-apple-system,&quot;SF Pro Display&quot;,&quot;SF Pro Text&quot;,Helvetica,sans-serif;" transform="matrix(1 0 0 1 776 1989)">can be adjusted by modifying the width of the blue rectangles.</text>
  <text style="stroke:none;fill:black;font-family:-apple-system,&quot;SF Pro Display&quot;,&quot;SF Pro Text&quot;,Helvetica,sans-serif;" transform="matrix(1 0 0 1 776 2007)">Modifications are automatically applied proportionally to all</text>
  <text style="stroke:none;fill:black;font-family:-apple-system,&quot;SF Pro Display&quot;,&quot;SF Pro Text&quot;,Helvetica,sans-serif;" transform="matrix(1 0 0 1 776 2025)">scales and weights.</text>
  <g id="" transform="matrix(1 0 0 1 1289 1933)">
   <path d="M 2.83203 3.11523 L 4.375 4.6582 C 5.22461 5.48828 6.19141 5.41992 7.06055 4.46289 L 17.2754 -6.66016 C 17.7051 -6.36719 18.0957 -6.37695 18.5645 -6.47461 L 19.6094 -6.68945 L 20.3027 -5.99609 L 20.2539 -5.47852 C 20.1855 -4.95117 20.3516 -4.53125 20.8496 -4.0332 L 21.6602 -3.22266 C 22.168 -2.71484 22.8223 -2.68555 23.3008 -3.16406 L 26.5527 -6.41602 C 27.0312 -6.89453 27.0117 -7.54883 26.5039 -8.05664 L 25.6836 -8.87695 C 25.1855 -9.375 24.7754 -9.55078 24.2383 -9.47266 L 23.7109 -9.41406 L 23.0566 -10.0781 L 23.3398 -11.2207 C 23.4863 -11.7871 23.3398 -12.2559 22.7148 -12.8613 L 20.3027 -15.2539 C 16.7578 -18.7793 12.2266 -18.6719 9.11133 -15.5371 C 8.69141 -15.1074 8.64258 -14.5215 8.91602 -14.0918 C 9.15039 -13.7207 9.62891 -13.4961 10.2734 -13.6621 C 11.7871 -14.043 13.3008 -13.9258 14.7852 -12.9199 L 14.1602 -11.3379 C 13.9258 -10.752 13.9453 -10.2734 14.1797 -9.83398 L 3.01758 0.439453 C 2.08008 1.30859 1.97266 2.25586 2.83203 3.11523 Z M 10.6738 -15.1465 C 13.3398 -17.1387 16.6504 -16.8262 19.0527 -14.4141 L 21.6797 -11.8066 C 21.9141 -11.5723 21.9434 -11.3867 21.8848 -11.0938 L 21.5039 -9.53125 L 23.0762 -7.95898 L 24.043 -8.04688 C 24.3262 -8.07617 24.4141 -8.05664 24.6387 -7.83203 L 25.2637 -7.20703 L 22.5098 -4.46289 L 21.8848 -5.07812 C 21.6602 -5.30273 21.6406 -5.40039 21.6699 -5.68359 L 21.7578 -6.64062 L 20.1953 -8.20312 L 18.5742 -7.89062 C 18.291 -7.83203 18.1445 -7.83203 17.9102 -8.07617 L 15.7324 -10.2539 C 15.5078 -10.4883 15.4785 -10.625 15.6055 -10.9473 L 16.5527 -13.2227 C 14.9512 -14.7559 12.8418 -15.6055 10.8008 -14.9512 C 10.7129 -14.9219 10.6445 -14.9414 10.6152 -14.9805 C 10.5859 -15.0293 10.5859 -15.0781 10.6738 -15.1465 Z M 4.10156 2.41211 C 3.61328 1.91406 3.78906 1.61133 4.12109 1.30859 L 15.0781 -8.80859 L 16.3086 -7.57812 L 6.15234 3.34961 C 5.84961 3.68164 5.46875 3.7793 5.06836 3.37891 Z"/>
  </g>
  <text style="stroke:none;fill:black;font-family:-apple-system,&quot;SF Pro Display&quot;,&quot;SF Pro Text&quot;,Helvetica,sans-serif;font-weight:bold;" transform="matrix(1 0 0 1 1289 1953)">Exporting</text>
  <text style="stroke:none;fill:black;font-family:-apple-system,&quot;SF Pro Display&quot;,&quot;SF Pro Text&quot;,Helvetica,sans-serif;" transform="matrix(1 0 0 1 1289 1971)">Symbols should be outlined when exporting to ensure the</text>
  <text style="stroke:none;fill:black;font-family:-apple-system,&quot;SF Pro Display&quot;,&quot;SF Pro Text&quot;,Helvetica,sans-serif;" transform="matrix(1 0 0 1 1289 1989)">design is preserved when submitting to Xcode.</text>
  <text id="template-version" style="stroke:none;fill:black;font-family:-apple-system,&quot;SF Pro Display&quot;,&quot;SF Pro Text&quot;,Helvetica,sans-serif;text-anchor:end;" transform="matrix(1 0 0 1 3036 1933)">Template v.1.0</text>
  <text style="stroke:none;fill:black;font-family:-apple-system,&quot;SF Pro Display&quot;,&quot;SF Pro Text&quot;,Helvetica,sans-serif;text-anchor:end;" transform="matrix(1 0 0 1 3036 1951)">Generated from square.stack</text>
  <text style="stroke:none;fill:black;font-family:-apple-system,&quot;SF Pro Display&quot;,&quot;SF Pro Text&quot;,Helvetica,sans-serif;text-anchor:end;" transform="matrix(1 0 0 1 3036 1969)">Typeset at 100 points</text>
  <text style="stroke:none;fill:black;font-family:-apple-system,&quot;SF Pro Display&quot;,&quot;SF Pro Text&quot;,Helvetica,sans-serif;" transform="matrix(1 0 0 1 263 726)">Small</text>
  <text style="stroke:none;fill:black;font-family:-apple-system,&quot;SF Pro Display&quot;,&quot;SF Pro Text&quot;,Helvetica,sans-serif;" transform="matrix(1 0 0 1 263 1156)">Medium</text>
  <text style="stroke:none;fill:black;font-family:-apple-system,&quot;SF Pro Display&quot;,&quot;SF Pro Text&quot;,Helvetica,sans-serif;" transform="matrix(1 0 0 1 263 1586)">Large</text>
 </g>
 <g id="Guides">
  <g id="H-reference" style="fill:#27AAE1;stroke:none;" transform="matrix(1 0 0 1 339 696)">
   <path d="M 54.9316 0 L 57.666 0 L 30.5664 -70.459 L 28.0762 -70.459 L 0.976562 0 L 3.66211 0 L 12.9395 -24.4629 L 45.7031 -24.4629 Z M 29.1992 -67.0898 L 29.4434 -67.0898 L 44.8242 -26.709 L 13.8184 -26.709 Z"/>
  </g>
  <line id="Baseline-S" style="fill:none;stroke:#27AAE1;opacity:1;stroke-width:0.577;" x1="263" x2="3036" y1="696" y2="696"/>
  <line id="Capline-S" style="fill:none;stroke:#27AAE1;opacity:1;stroke-width:0.577;" x1="263" x2="3036" y1="625.541" y2="625.541"/>
  <g id="H-reference" style="fill:#27AAE1;stroke:none;" transform="matrix(1 0 0 1 339 1126)">
   <path d="M 54.9316 0 L 57.666 0 L 30.5664 -70.459 L 28.0762 -70.459 L 0.976562 0 L 3.66211 0 L 12.9395 -24.4629 L 45.7031 -24.4629 Z M 29.1992 -67.0898 L 29.4434 -67.0898 L 44.8242 -26.709 L 13.8184 -26.709 Z"/>
  </g>
  <line id="Baseline-M" style="fill:none;stroke:#27AAE1;opacity:1;stroke-width:0.577;" x1="263" x2="3036" y1="1126" y2="1126"/>
  <line id="Capline-M" style="fill:none;stroke:#27AAE1;opacity:1;stroke-width:0.577;" x1="263" x2="3036" y1="1055.54" y2="1055.54"/>
  <g id="H-reference" style="fill:#27AAE1;stroke:none;" transform="matrix(1 0 0 1 339 1556)">
   <path d="M 54.9316 0 L 57.666 0 L 30.5664 -70.459 L 28.0762 -70.459 L 0.976562 0 L 3.66211 0 L 12.9395 -24.4629 L 45.7031 -24.4629 Z M 29.1992 -67.0898 L 29.4434 -67.0898 L 44.8242 -26.709 L 13.8184 -26.709 Z"/>
  </g>
  <line id="Baseline-L" style="fill:none;stroke:#27AAE1;opacity:1;stroke-width:0.577;" x1="263" x2="3036" y1="1556" y2="1556"/>
  <line id="Capline-L" style="fill:none;stroke:#27AAE1;opacity:1;stroke-width:0.577;" x1="263" x2="3036" y1="1485.54" y2="1485.54"/>
  <rect height="119.336" id="left-margin" style="fill:#00AEEF;stroke:none;opacity:0.4;" width="12.4512" x="1394.13" y="1030.79"/>
  <rect height="119.336" id="right-margin" style="fill:#00AEEF;stroke:none;opacity:0.4;" width="12.4512" x="1493.11" y="1030.79"/>
 </g>
 <g id="Symbols">
  <g id="Black-L" transform="matrix(1 0 0 1 2857.94 1556)">
   <path d="M 41.1133 -109.814 L 107.471 -109.814 C 106.885 -116.699 102.393 -120.605 95.1172 -120.605 L 53.4668 -120.605 C 46.1914 -120.605 41.6992 -116.699 41.1133 -109.814 Z M 30.5176 -88.3789 L 117.871 -88.3789 C 117.09 -95.6055 112.939 -100 104.443 -100 L 43.9453 -100 C 35.4492 -100 31.3477 -95.6055 30.5176 -88.3789 Z M 39.9902 41.748 L 111.621 41.748 C 126.221 41.748 134.863 33.1543 134.863 17.9199 L 134.863 -53.2227 C 134.863 -68.4082 126.221 -77.0508 110.986 -77.0508 L 39.9902 -77.0508 C 24.7559 -77.0508 16.0645 -68.4082 16.0645 -53.2227 L 16.0645 17.9199 C 16.0645 33.1543 24.7559 41.748 39.9902 41.748 Z M 42.6758 21.5332 C 38.4766 21.5332 36.3281 19.6289 36.3281 15.0879 L 36.3281 -50.3906 C 36.3281 -54.9316 38.4766 -56.8359 42.6758 -56.8359 L 108.252 -56.8359 C 112.451 -56.8359 114.648 -54.9316 114.648 -50.3906 L 114.648 15.0879 C 114.648 19.6289 112.451 21.5332 108.887 21.5332 Z"/>
  </g>
  <g id="Heavy-L" transform="matrix(1 0 0 1 2562.25 1556)">
   <path d="M 40.8203 -107.715 L 106.006 -107.715 C 105.469 -114.062 101.465 -117.627 94.7266 -117.627 L 52.0996 -117.627 C 45.4102 -117.627 41.3574 -114.062 40.8203 -107.715 Z M 30.1758 -87.4512 L 116.406 -87.4512 C 115.625 -94.0918 111.914 -98.1445 104.15 -98.1445 L 42.4316 -98.1445 C 34.7168 -98.1445 30.957 -94.0918 30.1758 -87.4512 Z M 38.8184 40.4297 L 110.938 40.4297 C 124.707 40.4297 132.812 32.3242 132.812 17.7734 L 132.812 -53.7109 C 132.812 -68.2617 124.707 -76.3672 110.059 -76.3672 L 38.8184 -76.3672 C 24.2188 -76.3672 16.0645 -68.2617 16.0645 -53.7109 L 16.0645 17.7734 C 16.0645 32.3242 24.2188 40.4297 38.8184 40.4297 Z M 40.918 22.9004 C 36.084 22.9004 33.5938 20.6055 33.5938 15.4785 L 33.5938 -51.416 C 33.5938 -56.543 36.084 -58.8379 40.918 -58.8379 L 107.959 -58.8379 C 112.744 -58.8379 115.332 -56.543 115.332 -51.416 L 115.332 15.4785 C 115.332 20.6055 112.744 22.9004 108.789 22.9004 Z"/>
  </g>
  <g id="Bold-L" transform="matrix(1 0 0 1 2266.69 1556)">
   <path d="M 40.4785 -105.42 L 104.395 -105.42 C 103.955 -111.133 100.391 -114.355 94.2871 -114.355 L 50.5859 -114.355 C 44.4824 -114.355 40.918 -111.133 40.4785 -105.42 Z M 29.834 -86.377 L 114.795 -86.377 C 114.014 -92.3828 110.742 -96.0449 103.857 -96.0449 L 40.7715 -96.0449 C 33.8379 -96.0449 30.5664 -92.3828 29.834 -86.377 Z M 37.5 38.916 L 110.156 38.916 C 123.047 38.916 130.518 31.3965 130.518 17.5781 L 130.518 -54.248 C 130.518 -68.0664 122.998 -75.5859 109.082 -75.5859 L 37.5 -75.5859 C 23.6328 -75.5859 16.0645 -68.0664 16.0645 -54.248 L 16.0645 17.5781 C 16.0645 31.4453 23.6328 38.916 37.5 38.916 Z M 38.9648 24.4629 C 33.4473 24.4629 30.5176 21.7285 30.5176 15.918 L 30.5176 -52.5879 C 30.5176 -58.3496 33.4473 -61.1328 38.9648 -61.1328 L 107.617 -61.1328 C 113.086 -61.1328 116.113 -58.3496 116.113 -52.5879 L 116.113 15.918 C 116.113 21.7285 113.086 24.4629 108.691 24.4629 Z"/>
  </g>
  <g id="Semibold-L" transform="matrix(1 0 0 1 1970.76 1556)">
   <path d="M 40.2832 -103.809 L 103.271 -103.809 C 102.881 -109.082 99.6582 -112.061 93.9941 -112.061 L 49.5605 -112.061 C 43.8965 -112.061 40.6738 -109.082 40.2832 -103.809 Z M 29.541 -85.6445 L 113.672 -85.6445 C 112.891 -91.2598 109.961 -94.5801 103.613 -94.5801 L 39.5996 -94.5801 C 33.252 -94.5801 30.3223 -91.2598 29.541 -85.6445 Z M 36.6211 37.8906 L 109.619 37.8906 C 121.875 37.8906 128.955 30.7617 128.955 17.4805 L 128.955 -54.6387 C 128.955 -67.9199 121.826 -75 108.398 -75 L 36.6211 -75 C 23.1934 -75 16.0645 -67.9688 16.0645 -54.6387 L 16.0645 17.4805 C 16.0645 30.8105 23.1934 37.8906 36.6211 37.8906 Z M 37.5977 25.5371 C 31.6406 25.5371 28.418 22.4609 28.418 16.2598 L 28.418 -53.3691 C 28.418 -59.6191 31.6406 -62.6953 37.5977 -62.6953 L 107.422 -62.6953 C 113.33 -62.6953 116.602 -59.6191 116.602 -53.3691 L 116.602 16.2598 C 116.602 22.4609 113.33 25.5371 108.643 25.5371 Z"/>
  </g>
  <g id="Medium-L" transform="matrix(1 0 0 1 1674.63 1556)">
   <path d="M 40.0879 -102.588 L 102.441 -102.588 C 102.051 -107.568 99.1211 -110.352 93.75 -110.352 L 48.7793 -110.352 C 43.4082 -110.352 40.4297 -107.568 40.0879 -102.588 Z M 29.3457 -85.1074 L 112.793 -85.1074 C 112.061 -90.3809 109.375 -93.457 103.467 -93.457 L 38.7207 -93.457 C 32.8125 -93.457 30.0781 -90.3809 29.3457 -85.1074 Z M 35.9375 37.1094 L 109.229 37.1094 C 120.996 37.1094 127.783 30.3223 127.783 17.3828 L 127.783 -54.8828 C 127.783 -67.8223 120.947 -74.6094 107.861 -74.6094 L 35.9375 -74.6094 C 22.9004 -74.6094 16.0645 -67.8711 16.0645 -54.8828 L 16.0645 17.3828 C 16.0645 30.3711 22.9004 37.1094 35.9375 37.1094 Z M 36.5723 26.3672 C 30.2246 26.3672 26.8066 23.0469 26.8066 16.5039 L 26.8066 -54.0039 C 26.8066 -60.5469 30.2246 -63.8672 36.5723 -63.8672 L 107.227 -63.8672 C 113.477 -63.8672 117.041 -60.5469 117.041 -54.0039 L 117.041 16.5039 C 117.041 23.0469 113.477 26.3672 108.594 26.3672 Z"/>
  </g>
  <g id="Regular-L" transform="matrix(1 0 0 1 1378.7 1556)">
   <path d="M 39.8926 -101.025 L 101.318 -101.025 C 101.025 -105.566 98.3887 -108.057 93.457 -108.057 L 47.7539 -108.057 C 42.8223 -108.057 40.1855 -105.566 39.8926 -101.025 Z M 29.1016 -84.375 L 111.719 -84.375 C 110.938 -89.209 108.545 -92.041 103.223 -92.041 L 37.5488 -92.041 C 32.2266 -92.041 29.834 -89.209 29.1016 -84.375 Z M 35.0586 36.084 L 108.691 36.084 C 119.824 36.084 126.221 29.6875 126.221 17.2363 L 126.221 -55.2734 C 126.221 -67.6758 119.775 -74.0723 107.178 -74.0723 L 35.0586 -74.0723 C 22.4609 -74.0723 16.0645 -67.7246 16.0645 -55.2734 L 16.0645 17.2363 C 16.0645 29.7363 22.4609 36.084 35.0586 36.084 Z M 35.2539 27.4414 C 28.418 27.4414 24.707 23.8281 24.707 16.7969 L 24.707 -54.7852 C 24.707 -61.8164 28.418 -65.4297 35.2539 -65.4297 L 107.031 -65.4297 C 113.721 -65.4297 117.578 -61.8164 117.578 -54.7852 L 117.578 16.7969 C 117.578 23.8281 113.721 27.4414 108.496 27.4414 Z"/>
  </g>
  <g id="Light-L" transform="matrix(1 0 0 1 1083.02 1556)">
   <path d="M 38.8184 -100.195 L 100.732 -100.195 C 100.537 -103.711 98.4375 -105.859 94.7266 -105.859 L 44.873 -105.859 C 41.1133 -105.859 39.0137 -103.711 38.8184 -100.195 Z M 28.6133 -84.668 L 110.693 -84.668 C 110.254 -88.3301 108.301 -90.6738 104.297 -90.6738 L 35.0098 -90.6738 C 31.0059 -90.6738 29.0527 -88.3301 28.6133 -84.668 Z M 34.0332 34.1309 L 107.129 34.1309 C 118.066 34.1309 124.17 27.9297 124.17 16.2598 L 124.17 -56.1523 C 124.17 -67.8223 118.066 -73.9746 106.201 -73.9746 L 34.0332 -73.9746 C 22.168 -73.9746 16.0645 -67.9199 16.0645 -56.1523 L 16.0645 16.2598 C 16.0645 28.0273 22.168 34.1309 34.0332 34.1309 Z M 34.1797 27.4902 C 26.709 27.4902 22.7051 23.5352 22.7051 15.918 L 22.7051 -55.8105 C 22.7051 -63.4277 26.709 -67.3828 34.1797 -67.3828 L 106.055 -67.3828 C 113.33 -67.3828 117.578 -63.4277 117.578 -55.8105 L 117.578 15.918 C 117.578 23.5352 113.33 27.4902 106.982 27.4902 Z"/>
  </g>
  <g id="Thin-L" transform="matrix(1 0 0 1 787.648 1556)">
   <path d="M 37.4023 -99.1699 L 100 -99.1699 C 99.9512 -101.221 98.5352 -102.881 96.3867 -102.881 L 41.0156 -102.881 C 38.8672 -102.881 37.4512 -101.221 37.4023 -99.1699 Z M 27.9785 -85.1074 L 109.375 -85.1074 C 109.277 -87.207 107.91 -88.916 105.664 -88.916 L 31.6895 -88.916 C 29.4434 -88.916 28.0762 -87.207 27.9785 -85.1074 Z M 32.666 31.543 L 105.078 31.543 C 115.771 31.543 121.484 25.6348 121.484 14.9414 L 121.484 -57.3242 C 121.484 -68.0176 115.771 -73.877 104.883 -73.877 L 32.666 -73.877 C 21.7773 -73.877 16.0645 -68.1641 16.0645 -57.3242 L 16.0645 14.9414 C 16.0645 25.7812 21.7773 31.543 32.666 31.543 Z M 32.8125 27.5879 C 24.4141 27.5879 19.9707 23.1934 19.9707 14.7461 L 19.9707 -57.1289 C 19.9707 -65.5762 24.4141 -69.9707 32.8125 -69.9707 L 104.736 -69.9707 C 112.842 -69.9707 117.578 -65.5762 117.578 -57.1289 L 117.578 14.7461 C 117.578 23.1934 112.842 27.5879 104.932 27.5879 Z"/>
  </g>
  <g id="Ultralight-L" transform="matrix(1 0 0 1 491.62 1556)">
   <path d="M 36.7188 -98.6328 L 99.6094 -98.6328 C 99.6094 -99.9512 98.584 -101.367 97.2168 -101.367 L 39.0625 -101.367 C 37.6953 -101.367 36.6699 -99.9512 36.7188 -98.6328 Z M 27.6367 -85.3027 L 108.691 -85.3027 C 108.789 -86.6211 107.715 -87.9883 106.396 -87.9883 L 29.9316 -87.9883 C 28.6133 -87.9883 27.5391 -86.6211 27.6367 -85.3027 Z M 31.9824 30.1758 L 104.004 30.1758 C 114.551 30.1758 120.117 24.4629 120.117 14.2578 L 120.117 -57.9102 C 120.117 -68.1152 114.551 -73.8281 104.199 -73.8281 L 31.9824 -73.8281 C 21.582 -73.8281 16.0645 -68.3105 16.0645 -57.9102 L 16.0645 14.2578 C 16.0645 24.6582 21.582 30.1758 31.9824 30.1758 Z M 32.1289 27.6367 C 23.1934 27.6367 18.6035 23.0469 18.6035 14.1602 L 18.6035 -57.8125 C 18.6035 -66.6992 23.1934 -71.2891 32.1289 -71.2891 L 104.053 -71.2891 C 112.598 -71.2891 117.578 -66.6992 117.578 -57.8125 L 117.578 14.1602 C 117.578 23.0469 112.598 27.6367 103.857 27.6367 Z"/>
  </g>
  <g id="Black-M" transform="matrix(1 0 0 1 2874.07 1126)">
   <path d="M 31.6895 -95.4102 L 84.9609 -95.4102 C 84.4238 -100.928 80.6641 -104.15 74.9512 -104.15 L 41.6992 -104.15 C 35.9375 -104.15 32.1777 -100.928 31.6895 -95.4102 Z M 23.877 -77.8809 L 92.7734 -77.8809 C 92.2852 -83.5449 88.7695 -87.2559 81.8848 -87.2559 L 34.7656 -87.2559 C 27.8809 -87.2559 24.3652 -83.5449 23.877 -77.8809 Z M 31.9824 25.1953 L 86.6211 25.1953 C 98.9258 25.1953 106.201 17.9199 106.201 5.66406 L 106.201 -49.0234 C 106.201 -61.2793 98.9258 -68.5547 86.6699 -68.5547 L 31.9824 -68.5547 C 19.7266 -68.5547 12.4512 -61.2793 12.4512 -49.0234 L 12.4512 5.66406 C 12.4512 17.9199 19.7266 25.1953 31.9824 25.1953 Z M 34.9121 6.88477 C 32.0801 6.88477 30.7617 5.81055 30.7617 2.73438 L 30.7617 -46.0938 C 30.7617 -49.1699 32.0801 -50.2441 34.9121 -50.2441 L 83.7402 -50.2441 C 86.5723 -50.2441 87.8906 -49.1699 87.8906 -46.0938 L 87.8906 2.73438 C 87.8906 5.81055 86.5723 6.88477 83.6914 6.88477 Z"/>
  </g>
  <g id="Heavy-M" transform="matrix(1 0 0 1 2578.22 1126)">
   <path d="M 31.6406 -93.3594 L 83.4961 -93.3594 C 83.0566 -98.5352 79.6387 -101.514 74.1699 -101.514 L 40.9668 -101.514 C 35.5469 -101.514 32.0801 -98.5352 31.6406 -93.3594 Z M 23.6328 -76.7578 L 91.4551 -76.7578 C 90.918 -82.1289 87.6953 -85.5469 81.2988 -85.5469 L 33.7402 -85.5469 C 27.3438 -85.5469 24.1699 -82.1289 23.6328 -76.7578 Z M 31.0059 24.2188 L 86.2793 24.2188 C 97.7539 24.2188 104.492 17.4805 104.492 5.76172 L 104.492 -49.3164 C 104.492 -61.0352 97.7051 -67.8223 85.9375 -67.8223 L 31.0059 -67.8223 C 19.2383 -67.8223 12.4512 -61.0352 12.4512 -49.3164 L 12.4512 5.76172 C 12.4512 17.4805 19.2383 24.2188 31.0059 24.2188 Z M 33.252 8.39844 C 29.9316 8.39844 28.2715 6.98242 28.2715 3.41797 L 28.2715 -46.9727 C 28.2715 -50.5371 29.9316 -51.9531 33.252 -51.9531 L 83.6914 -51.9531 C 86.9629 -51.9531 88.6719 -50.5371 88.6719 -46.9727 L 88.6719 3.41797 C 88.6719 6.98242 86.9629 8.39844 83.9844 8.39844 Z"/>
  </g>
  <g id="Bold-M" transform="matrix(1 0 0 1 2282.46 1126)">
   <path d="M 31.5918 -91.0156 L 81.8848 -91.0156 C 81.4941 -95.8496 78.418 -98.584 73.3398 -98.584 L 40.1855 -98.584 C 35.0586 -98.584 31.9824 -95.8496 31.5918 -91.0156 Z M 23.3398 -75.4883 L 89.9414 -75.4883 C 89.3555 -80.5664 86.5234 -83.6426 80.6641 -83.6426 L 32.666 -83.6426 C 26.7578 -83.6426 23.9746 -80.5664 23.3398 -75.4883 Z M 29.8828 23.1445 L 85.8887 23.1445 C 96.3867 23.1445 102.588 16.9922 102.588 5.85938 L 102.588 -49.6094 C 102.588 -60.791 96.3867 -66.9434 85.1562 -66.9434 L 29.8828 -66.9434 C 18.6523 -66.9434 12.4512 -60.791 12.4512 -49.6094 L 12.4512 5.85938 C 12.4512 16.9922 18.6523 23.1445 29.8828 23.1445 Z M 31.3965 10.1074 C 27.5391 10.1074 25.5371 8.25195 25.5371 4.15039 L 25.5371 -47.9492 C 25.5371 -52.0508 27.5391 -53.9062 31.3965 -53.9062 L 83.6426 -53.9062 C 87.4512 -53.9062 89.502 -52.0508 89.502 -47.9492 L 89.502 4.15039 C 89.502 8.25195 87.4512 10.1074 84.3262 10.1074 Z"/>
  </g>
  <g id="Semibold-M" transform="matrix(1 0 0 1 1986.41 1126)">
   <path d="M 31.543 -89.4531 L 80.7617 -89.4531 C 80.4199 -93.9941 77.6367 -96.5332 72.7539 -96.5332 L 39.5996 -96.5332 C 34.7168 -96.5332 31.9336 -93.9941 31.543 -89.4531 Z M 23.1445 -74.6582 L 88.916 -74.6582 C 88.2812 -79.4922 85.7422 -82.3242 80.2246 -82.3242 L 31.8848 -82.3242 C 26.3672 -82.3242 23.8281 -79.4922 23.1445 -74.6582 Z M 29.1016 22.4121 L 85.5957 22.4121 C 95.459 22.4121 101.27 16.6504 101.27 5.9082 L 101.27 -49.8535 C 101.27 -60.5957 95.459 -66.4062 84.6191 -66.4062 L 29.1016 -66.4062 C 18.2617 -66.4062 12.4512 -60.6445 12.4512 -49.8535 L 12.4512 5.9082 C 12.4512 16.6992 18.2617 22.4121 29.1016 22.4121 Z M 30.127 11.2305 C 25.8789 11.2305 23.6328 9.13086 23.6328 4.6875 L 23.6328 -48.6328 C 23.6328 -53.0762 25.8789 -55.2246 30.127 -55.2246 L 83.5938 -55.2246 C 87.793 -55.2246 90.0879 -53.0762 90.0879 -48.6328 L 90.0879 4.6875 C 90.0879 9.13086 87.793 11.2305 84.5703 11.2305 Z"/>
  </g>
  <g id="Medium-M" transform="matrix(1 0 0 1 1690.21 1126)">
   <path d="M 31.543 -88.2324 L 79.9316 -88.2324 C 79.5898 -92.627 77.002 -94.9707 72.2656 -94.9707 L 39.209 -94.9707 C 34.4727 -94.9707 31.8848 -92.627 31.543 -88.2324 Z M 22.998 -73.9746 L 88.1348 -73.9746 C 87.4512 -78.6621 85.1074 -81.3477 79.834 -81.3477 L 31.2988 -81.3477 C 26.0742 -81.3477 23.6816 -78.6621 22.998 -73.9746 Z M 28.5156 21.875 L 85.4004 21.875 C 94.7754 21.875 100.244 16.4062 100.244 5.95703 L 100.244 -50 C 100.244 -60.498 94.7266 -65.9668 84.1797 -65.9668 L 28.5156 -65.9668 C 17.9688 -65.9668 12.4512 -60.498 12.4512 -50 L 12.4512 5.95703 C 12.4512 16.4062 17.9688 21.875 28.5156 21.875 Z M 29.1504 12.1582 C 24.6582 12.1582 22.168 9.81445 22.168 5.07812 L 22.168 -49.1699 C 22.168 -53.8574 24.6582 -56.2012 29.1504 -56.2012 L 83.5449 -56.2012 C 88.0371 -56.2012 90.5273 -53.8574 90.5273 -49.1699 L 90.5273 5.07812 C 90.5273 9.81445 88.0371 12.1582 84.7656 12.1582 Z"/>
  </g>
  <g id="Regular-M" transform="matrix(1 0 0 1 1394.13 1126)">
   <path d="M 31.4941 -86.6699 L 78.8574 -86.6699 C 78.5645 -90.8203 76.2207 -92.9688 71.7285 -92.9688 L 38.623 -92.9688 C 34.1309 -92.9688 31.7871 -90.8203 31.4941 -86.6699 Z M 22.8027 -73.1445 L 87.1094 -73.1445 C 86.377 -77.5879 84.2773 -80.0293 79.3945 -80.0293 L 30.5664 -80.0293 C 25.6348 -80.0293 23.5352 -77.5879 22.8027 -73.1445 Z M 27.7832 21.1426 L 85.1074 21.1426 C 93.8477 21.1426 98.9746 16.0645 98.9746 6.00586 L 98.9746 -50.2441 C 98.9746 -60.3027 93.7988 -65.3809 83.6426 -65.3809 L 27.7832 -65.3809 C 17.5781 -65.3809 12.4512 -60.3027 12.4512 -50.2441 L 12.4512 6.00586 C 12.4512 16.1133 17.5781 21.1426 27.7832 21.1426 Z M 27.8809 13.2812 C 22.998 13.2812 20.3125 10.6934 20.3125 5.61523 L 20.3125 -49.8047 C 20.3125 -54.8828 22.998 -57.5195 27.8809 -57.5195 L 83.4961 -57.5195 C 88.3301 -57.5195 91.1133 -54.8828 91.1133 -49.8047 L 91.1133 5.61523 C 91.1133 10.6934 88.3301 13.2812 84.9609 13.2812 Z"/>
  </g>
  <g id="Light-M" transform="matrix(1 0 0 1 1098.35 1126)">
   <path d="M 30.5664 -85.9375 L 78.3203 -85.9375 C 78.125 -89.1113 76.2695 -90.9668 72.8516 -90.9668 L 36.0352 -90.9668 C 32.6172 -90.9668 30.7617 -89.1113 30.5664 -85.9375 Z M 22.4121 -73.4375 L 86.2305 -73.4375 C 85.7422 -76.8066 84.0332 -78.8086 80.3711 -78.8086 L 28.2715 -78.8086 C 24.5605 -78.8086 22.8516 -76.8066 22.4121 -73.4375 Z M 26.8555 19.3848 L 83.6914 19.3848 C 92.2852 19.3848 97.1191 14.502 97.1191 5.12695 L 97.1191 -51.0254 C 97.1191 -60.4492 92.2852 -65.2832 82.7637 -65.2832 L 26.8555 -65.2832 C 17.334 -65.2832 12.4512 -60.498 12.4512 -51.0254 L 12.4512 5.12695 C 12.4512 14.5508 17.334 19.3848 26.8555 19.3848 Z M 26.9531 13.3301 C 21.4844 13.3301 18.5059 10.4492 18.5059 4.78516 L 18.5059 -50.7324 C 18.5059 -56.3477 21.4844 -59.2773 26.9531 -59.2773 L 82.6172 -59.2773 C 87.9883 -59.2773 91.1133 -56.3477 91.1133 -50.7324 L 91.1133 4.78516 C 91.1133 10.4492 87.9883 13.3301 83.5938 13.3301 Z"/>
  </g>
  <g id="Thin-M" transform="matrix(1 0 0 1 802.833 1126)">
   <path d="M 29.2969 -85.0098 L 77.6367 -85.0098 C 77.5879 -86.9141 76.3672 -88.2812 74.3164 -88.2812 L 32.6172 -88.2812 C 30.6152 -88.2812 29.3457 -86.9141 29.2969 -85.0098 Z M 21.8262 -73.7793 L 85.0586 -73.7793 C 84.9121 -75.7812 83.7402 -77.1973 81.5918 -77.1973 L 25.293 -77.1973 C 23.1445 -77.1973 21.9727 -75.7812 21.8262 -73.7793 Z M 25.6348 17.041 L 81.8848 17.041 C 90.2344 17.041 94.7266 12.4512 94.7266 3.95508 L 94.7266 -52.0996 C 94.7266 -60.5957 90.1855 -65.2344 81.543 -65.2344 L 25.6348 -65.2344 C 16.9922 -65.2344 12.4512 -60.6934 12.4512 -52.0996 L 12.4512 3.95508 C 12.4512 12.5488 16.9922 17.041 25.6348 17.041 Z M 25.7324 13.4277 C 19.3848 13.4277 16.0645 10.1074 16.0645 3.75977 L 16.0645 -51.9043 C 16.0645 -58.3008 19.3848 -61.5723 25.7324 -61.5723 L 81.4453 -61.5723 C 87.5488 -61.5723 91.1133 -58.3008 91.1133 -51.9043 L 91.1133 3.75977 C 91.1133 10.1074 87.5488 13.4277 81.7383 13.4277 Z"/>
  </g>
  <g id="Ultralight-M" transform="matrix(1 0 0 1 506.733 1126)">
   <path d="M 28.6621 -84.5215 L 77.2949 -84.5215 C 77.2949 -85.791 76.416 -86.9629 75.0977 -86.9629 L 30.8594 -86.9629 C 29.5898 -86.9629 28.6621 -85.791 28.6621 -84.5215 Z M 21.5332 -73.9746 L 84.4727 -73.9746 C 84.4727 -75.2441 83.5449 -76.3672 82.2266 -76.3672 L 23.7305 -76.3672 C 22.4121 -76.3672 21.5332 -75.2441 21.5332 -73.9746 Z M 25 15.8691 L 80.9082 15.8691 C 89.1602 15.8691 93.5059 11.377 93.5059 3.32031 L 93.5059 -52.6367 C 93.5059 -60.6934 89.1602 -65.1855 80.957 -65.1855 L 25 -65.1855 C 16.7969 -65.1855 12.4512 -60.8398 12.4512 -52.6367 L 12.4512 3.32031 C 12.4512 11.5234 16.7969 15.8691 25 15.8691 Z M 25.0977 13.4766 C 18.3594 13.4766 14.8438 9.96094 14.8438 3.22266 L 14.8438 -52.4902 C 14.8438 -59.2773 18.3594 -62.793 25.0977 -62.793 L 80.8105 -62.793 C 87.3535 -62.793 91.1133 -59.2773 91.1133 -52.4902 L 91.1133 3.22266 C 91.1133 9.96094 87.3535 13.4766 80.8105 13.4766 Z"/>
  </g>
  <g id="Black-S" transform="matrix(1 0 0 1 2886.96 696)">
   <path d="M 24.8535 -82.2266 L 66.4551 -82.2266 C 66.0645 -86.5234 63.1348 -89.0625 58.6426 -89.0625 L 32.666 -89.0625 C 28.1738 -89.0625 25.2441 -86.5234 24.8535 -82.2266 Z M 18.7012 -68.5547 L 72.6074 -68.5547 C 72.2168 -72.998 69.4824 -75.8789 64.1113 -75.8789 L 27.1973 -75.8789 C 21.8262 -75.8789 19.0918 -72.998 18.7012 -68.5547 Z M 25 12.0605 L 67.8711 12.0605 C 77.4414 12.0605 83.1055 6.39648 83.1055 -3.17383 L 83.1055 -46.0449 C 83.1055 -55.6152 77.4414 -61.2793 67.8711 -61.2793 L 25 -61.2793 C 15.4297 -61.2793 9.76562 -55.6152 9.76562 -46.0449 L 9.76562 -3.17383 C 9.76562 6.39648 15.4297 12.0605 25 12.0605 Z M 27.2461 -2.09961 C 25 -2.09961 23.9258 -2.97852 23.9258 -5.41992 L 23.9258 -43.7988 C 23.9258 -46.2402 25 -47.1191 27.2461 -47.1191 L 65.625 -47.1191 C 67.8711 -47.1191 68.9453 -46.2402 68.9453 -43.7988 L 68.9453 -5.41992 C 68.9453 -2.97852 67.8711 -2.09961 65.625 -2.09961 Z"/>
  </g>
  <g id="Heavy-S" transform="matrix(1 0 0 1 2590.81 696)">
   <path d="M 24.9023 -80.7129 L 65.4297 -80.7129 C 65.0391 -84.8633 62.3047 -87.2559 57.959 -87.2559 L 32.4219 -87.2559 C 28.0273 -87.2559 25.293 -84.8633 24.9023 -80.7129 Z M 18.5547 -67.6758 L 71.6797 -67.6758 C 71.2402 -72.0215 68.7012 -74.707 63.5742 -74.707 L 26.709 -74.707 C 21.5332 -74.707 19.043 -72.0215 18.5547 -67.6758 Z M 24.3652 11.5234 L 67.7734 11.5234 C 76.709 11.5234 81.9824 6.25 81.9824 -3.02734 L 81.9824 -46.1914 C 81.9824 -55.4199 76.709 -60.6934 67.4316 -60.6934 L 24.3652 -60.6934 C 15.0879 -60.6934 9.76562 -55.4199 9.76562 -46.1914 L 9.76562 -3.02734 C 9.76562 6.25 15.0879 11.5234 24.3652 11.5234 Z M 26.0742 -0.976562 C 23.5352 -0.976562 22.2656 -2.09961 22.2656 -4.83398 L 22.2656 -44.3848 C 22.2656 -47.1191 23.5352 -48.2422 26.0742 -48.2422 L 65.6738 -48.2422 C 68.2129 -48.2422 69.5312 -47.1191 69.5312 -44.3848 L 69.5312 -4.83398 C 69.5312 -2.09961 68.2129 -0.976562 66.0156 -0.976562 Z"/>
  </g>
  <g id="Bold-S" transform="matrix(1 0 0 1 2294.71 696)">
   <path d="M 25 -79.0527 L 64.2578 -79.0527 C 63.916 -83.0566 61.4258 -85.2539 57.1289 -85.2539 L 32.0801 -85.2539 C 27.832 -85.2539 25.3418 -83.0566 25 -79.0527 Z M 18.4082 -66.6504 L 70.6543 -66.6504 C 70.1172 -70.8984 67.8223 -73.3887 62.9395 -73.3887 L 26.123 -73.3887 C 21.2402 -73.3887 18.9453 -70.8984 18.4082 -66.6504 Z M 23.6328 10.9375 L 67.627 10.9375 C 75.8789 10.9375 80.7617 6.05469 80.7617 -2.83203 L 80.7617 -46.3379 C 80.7617 -55.2246 75.8789 -60.0586 66.9434 -60.0586 L 23.6328 -60.0586 C 14.6973 -60.0586 9.76562 -55.2246 9.76562 -46.3379 L 9.76562 -2.83203 C 9.76562 6.05469 14.6973 10.9375 23.6328 10.9375 Z M 24.8047 0.341797 C 21.9238 0.341797 20.3613 -1.07422 20.3613 -4.15039 L 20.3613 -45.0195 C 20.3613 -48.0957 21.9238 -49.4629 24.8047 -49.4629 L 65.7715 -49.4629 C 68.6035 -49.4629 70.166 -48.0957 70.166 -45.0195 L 70.166 -4.15039 C 70.166 -1.07422 68.6035 0.341797 66.4551 0.341797 Z"/>
  </g>
  <g id="Semibold-S" transform="matrix(1 0 0 1 1998.42 696)">
   <path d="M 25.0488 -77.8809 L 63.4277 -77.8809 C 63.1348 -81.7871 60.791 -83.8379 56.5918 -83.8379 L 31.8848 -83.8379 C 27.7344 -83.8379 25.3906 -81.7871 25.0488 -77.8809 Z M 18.3105 -65.9668 L 69.9707 -65.9668 C 69.3359 -70.1172 67.2363 -72.5098 62.5 -72.5098 L 25.7324 -72.5098 C 20.9961 -72.5098 18.8965 -70.1172 18.3105 -65.9668 Z M 23.0957 10.498 L 67.5293 10.498 C 75.293 10.498 79.9316 5.9082 79.9316 -2.68555 L 79.9316 -46.4355 C 79.9316 -55.0781 75.293 -59.6191 66.6016 -59.6191 L 23.0957 -59.6191 C 14.4043 -59.6191 9.76562 -55.0781 9.76562 -46.4355 L 9.76562 -2.68555 C 9.76562 5.95703 14.4043 10.498 23.0957 10.498 Z M 23.877 1.2207 C 20.752 1.2207 19.0918 -0.390625 19.0918 -3.66211 L 19.0918 -45.459 C 19.0918 -48.7793 20.752 -50.3418 23.877 -50.3418 L 65.8203 -50.3418 C 68.8965 -50.3418 70.6055 -48.7793 70.6055 -45.459 L 70.6055 -3.66211 C 70.6055 -0.390625 68.8965 1.2207 66.748 1.2207 Z"/>
  </g>
  <g id="Medium-S" transform="matrix(1 0 0 1 1702.05 696)">
   <path d="M 25.0977 -77.002 L 62.8418 -77.002 C 62.5488 -80.8105 60.3027 -82.8125 56.2012 -82.8125 L 31.7383 -82.8125 C 27.6367 -82.8125 25.3906 -80.8105 25.0977 -77.002 Z M 18.2129 -65.4785 L 69.4336 -65.4785 C 68.75 -69.5312 66.748 -71.7773 62.207 -71.7773 L 25.4395 -71.7773 C 20.8496 -71.7773 18.8477 -69.5312 18.2129 -65.4785 Z M 22.7051 10.2051 L 67.4316 10.2051 C 74.9023 10.2051 79.248 5.85938 79.248 -2.58789 L 79.248 -46.4844 C 79.248 -54.9316 74.8535 -59.3262 66.3086 -59.3262 L 22.7051 -59.3262 C 14.209 -59.3262 9.76562 -54.9316 9.76562 -46.4844 L 9.76562 -2.58789 C 9.76562 5.85938 14.209 10.2051 22.7051 10.2051 Z M 23.1934 1.85547 C 19.9219 1.85547 18.0664 0.146484 18.0664 -3.32031 L 18.0664 -45.8008 C 18.0664 -49.2676 19.9219 -50.9766 23.1934 -50.9766 L 65.8203 -50.9766 C 69.0918 -50.9766 70.9473 -49.2676 70.9473 -45.8008 L 70.9473 -3.32031 C 70.9473 0.146484 69.0918 1.85547 66.9922 1.85547 Z"/>
  </g>
  <g id="Regular-S" transform="matrix(1 0 0 1 1405.75 696)">
   <path d="M 25.1465 -75.8789 L 62.0117 -75.8789 C 61.7676 -79.5898 59.668 -81.4453 55.6641 -81.4453 L 31.543 -81.4453 C 27.4902 -81.4453 25.4395 -79.5898 25.1465 -75.8789 Z M 18.1152 -64.7949 L 68.7012 -64.7949 C 68.0176 -68.7988 66.1621 -70.8984 61.7676 -70.8984 L 25.0488 -70.8984 C 20.6543 -70.8984 18.7988 -68.7988 18.1152 -64.7949 Z M 22.2168 9.76562 L 67.3828 9.76562 C 74.3164 9.76562 78.418 5.71289 78.418 -2.49023 L 78.418 -46.6309 C 78.418 -54.7852 74.2676 -58.8867 65.9668 -58.8867 L 22.2168 -58.8867 C 13.916 -58.8867 9.76562 -54.834 9.76562 -46.6309 L 9.76562 -2.49023 C 9.76562 5.71289 13.916 9.76562 22.2168 9.76562 Z M 22.3145 2.73438 C 18.7988 2.73438 16.7969 0.830078 16.7969 -2.88086 L 16.7969 -46.2402 C 16.7969 -49.9512 18.7988 -51.8555 22.3145 -51.8555 L 65.8691 -51.8555 C 69.3848 -51.8555 71.3867 -49.9512 71.3867 -46.2402 L 71.3867 -2.88086 C 71.3867 0.830078 69.3848 2.73438 67.2852 2.73438 Z"/>
  </g>
  <g id="Light-S" transform="matrix(1 0 0 1 1109.85 696)">
   <path d="M 24.3164 -75.2441 L 61.5723 -75.2441 C 61.377 -78.0762 59.7168 -79.6387 56.6406 -79.6387 L 29.248 -79.6387 C 26.1719 -79.6387 24.5117 -78.0762 24.3164 -75.2441 Z M 17.7246 -65.0391 L 67.9199 -65.0391 C 67.4316 -68.0664 65.9668 -69.8242 62.5977 -69.8242 L 23.0469 -69.8242 C 19.6777 -69.8242 18.2129 -68.0664 17.7246 -65.0391 Z M 21.3867 8.25195 L 66.1133 8.25195 C 72.9004 8.25195 76.8066 4.3457 76.8066 -3.27148 L 76.8066 -47.3145 C 76.8066 -54.9316 72.9004 -58.8379 65.1855 -58.8379 L 21.3867 -58.8379 C 13.6719 -58.8379 9.76562 -54.9805 9.76562 -47.3145 L 9.76562 -3.27148 C 9.76562 4.39453 13.6719 8.25195 21.3867 8.25195 Z M 21.4844 2.7832 C 17.4316 2.7832 15.1855 0.634766 15.1855 -3.56445 L 15.1855 -47.0215 C 15.1855 -51.2207 17.4316 -53.3691 21.4844 -53.3691 L 65.0879 -53.3691 C 69.0918 -53.3691 71.3867 -51.2207 71.3867 -47.0215 L 71.3867 -3.56445 C 71.3867 0.634766 69.0918 2.7832 66.0156 2.7832 Z"/>
  </g>
  <g id="Thin-S" transform="matrix(1 0 0 1 814.186 696)">
   <path d="M 23.1934 -74.4141 L 60.9863 -74.4141 C 60.8887 -76.123 59.8145 -77.2949 57.959 -77.2949 L 26.2207 -77.2949 C 24.3652 -77.2949 23.291 -76.123 23.1934 -74.4141 Z M 17.2363 -65.3809 L 66.8945 -65.3809 C 66.6992 -67.1875 65.6738 -68.4082 63.7207 -68.4082 L 20.3613 -68.4082 C 18.4082 -68.4082 17.3828 -67.1875 17.2363 -65.3809 Z M 20.3125 6.20117 L 64.502 6.20117 C 71.0938 6.20117 74.707 2.53906 74.707 -4.29688 L 74.707 -48.2422 C 74.707 -55.0781 71.0938 -58.7402 64.1602 -58.7402 L 20.3125 -58.7402 C 13.3789 -58.7402 9.76562 -55.127 9.76562 -48.2422 L 9.76562 -4.29688 C 9.76562 2.58789 13.3789 6.20117 20.3125 6.20117 Z M 20.4102 2.88086 C 15.625 2.88086 13.0859 0.390625 13.0859 -4.49219 L 13.0859 -48.0469 C 13.0859 -52.9297 15.625 -55.4199 20.4102 -55.4199 L 64.0625 -55.4199 C 68.7012 -55.4199 71.3867 -52.9297 71.3867 -48.0469 L 71.3867 -4.49219 C 71.3867 0.390625 68.7012 2.88086 64.4043 2.88086 Z"/>
  </g>
  <g id="Ultralight-S" transform="matrix(1 0 0 1 518.036 696)">
   <path d="M 22.6562 -73.9746 L 60.6445 -73.9746 C 60.6445 -75.1465 59.8633 -76.123 58.6426 -76.123 L 24.6582 -76.123 C 23.4375 -76.123 22.6562 -75.1465 22.6562 -73.9746 Z M 16.9434 -65.5273 L 66.3574 -65.5273 C 66.3086 -66.6992 65.5273 -67.6758 64.2578 -67.6758 L 18.9941 -67.6758 C 17.7734 -67.6758 16.9922 -66.6992 16.9434 -65.5273 Z M 19.7754 5.12695 L 63.6719 5.12695 C 70.1172 5.12695 73.584 1.5625 73.584 -4.83398 L 73.584 -48.7305 C 73.584 -55.1758 70.1172 -58.6914 63.623 -58.6914 L 19.7754 -58.6914 C 13.2324 -58.6914 9.76562 -55.2734 9.76562 -48.7305 L 9.76562 -4.83398 C 9.76562 1.66016 13.2324 5.12695 19.7754 5.12695 Z M 19.873 2.92969 C 14.6484 2.92969 11.9629 0.244141 11.9629 -4.98047 L 11.9629 -48.584 C 11.9629 -53.8086 14.6484 -56.4941 19.873 -56.4941 L 63.5254 -56.4941 C 68.5059 -56.4941 71.3867 -53.8086 71.3867 -48.584 L 71.3867 -4.98047 C 71.3867 0.244141 68.5059 2.92969 63.5742 2.92969 Z"/>
  </g>
 </g>
</svg>
